<?xml version="1.0" encoding="UTF-8" standalone="no"?><!DOCTYPE svg PUBLIC "-//W3C//DTD SVG 1.1//EN" "http://www.w3.org/Graphics/SVG/1.1/DTD/svg11.dtd"><svg width="100%" height="100%" viewBox="0 0 2334 2334" version="1.1" xmlns="http://www.w3.org/2000/svg" xmlns:xlink="http://www.w3.org/1999/xlink" xml:space="preserve" xmlns:serif="http://www.serif.com/" style="fill-rule:evenodd;clip-rule:evenodd;stroke-linejoin:round;stroke-miterlimit:2;"><rect id="Page-1" serif:id="Page 1" x="0" y="0" width="2333.333" height="2333.333" style="fill:none;"/><g id="Layer-1" serif:id="Layer 1"><path d="M1166.713,67.272c293.646,0 569.692,114.35 777.346,322c207.654,207.654 322,483.75 322,777.442c0,293.646 -114.346,569.692 -322,777.346c-207.654,207.65 -483.7,322 -777.346,322c-293.692,0 -569.787,-114.35 -777.438,-322c-207.654,-207.654 -322.004,-483.7 -322.004,-777.346c0,-293.692 114.35,-569.787 322.004,-777.442c207.65,-207.65 483.746,-322 777.438,-322m0,-23.604c-620.258,0 -1123.046,502.792 -1123.046,1123.046c0,620.163 502.787,1122.95 1123.046,1122.95c620.163,0 1122.95,-502.788 1122.95,-1122.95c0,-620.254 -502.787,-1123.046 -1122.95,-1123.046" style="fill:#ee3b24;fill-rule:nonzero;"/><path d="M1703.471,1601.976l-327.821,0c-4.842,0 -9.217,-2.979 -10.987,-7.492l-44.837,-113.838l-300.071,0l-43.533,113.742c-1.767,4.562 -6.146,7.588 -11.033,7.588l-322.654,0c-3.954,0 -7.679,-1.954 -9.867,-5.258c-2.142,-3.308 -2.563,-7.45 -1.025,-11.083l380.758,-909.946c1.813,-4.421 6.096,-7.263 10.892,-7.263l299.421,0c4.75,0 9.033,2.842 10.896,7.263l380.758,909.946c1.533,3.633 1.117,7.775 -1.071,11.083c-2.192,3.304 -5.867,5.258 -9.825,5.258m-319.812,-23.604l302.075,0l-370.888,-886.338l-283.729,0l-370.842,886.338l296.812,0l43.533,-113.742c1.767,-4.562 6.146,-7.592 11.033,-7.592l316.225,0c4.846,0 9.221,2.983 10.992,7.496l44.788,113.838Z" style="fill:#ee3b24;fill-rule:nonzero;"/></g></svg>